/* XPM */
static char *ksirk[] = {
/* columns rows colors chars-per-pixel */
"32 32 228 2 ",
"   c #191004",
".  c #191005",
"X  c #1A1105",
"o  c #241B0E",
"O  c #331C03",
"+  c #392004",
"@  c #30220D",
"#  c #37250C",
"$  c #2E2719",
"%  c #332817",
"&  c #352914",
"*  c #3B2811",
"=  c #3C2E18",
"-  c #1B1F20",
";  c #1D2021",
":  c #1E2223",
">  c #212728",
",  c #242728",
"<  c #222828",
"1  c #252929",
"2  c #262B2C",
"3  c #262B2D",
"4  c #292D2E",
"5  c #30312B",
"6  c #3A372F",
"7  c #292E30",
"8  c #2A2F30",
"9  c #2A2F31",
"0  c #2C3233",
"q  c #2D3234",
"w  c #2F3435",
"e  c #2D3537",
"r  c #2E3436",
"t  c #32383A",
"y  c #353939",
"u  c #34393B",
"i  c #353B3D",
"p  c #373D3E",
"a  c #393D3E",
"s  c #3B3C3E",
"d  c #462908",
"f  c #4A2E0C",
"g  c #50300B",
"h  c #52330C",
"j  c #55340C",
"k  c #54350F",
"l  c #5A3309",
"z  c #58380E",
"x  c #402C10",
"c  c #463010",
"v  c #483212",
"b  c #483619",
"n  c #48351A",
"m  c #49361A",
"M  c #4E3919",
"N  c #4E3A1A",
"B  c #4E3A1C",
"V  c #513811",
"C  c #543B16",
"Z  c #573D16",
"A  c #5A3B10",
"S  c #583C13",
"D  c #593E15",
"F  c #593D16",
"G  c #553B1B",
"H  c #553D19",
"J  c #523D1C",
"K  c #523E1E",
"L  c #543F1F",
"P  c #5F4215",
"I  c #59411B",
"U  c #58411D",
"Y  c #59421D",
"T  c #624013",
"R  c #604215",
"E  c #664616",
"W  c #694411",
"Q  c #6C4815",
"!  c #6D4815",
"~  c #61431C",
"^  c #65481C",
"/  c #65481E",
"(  c #664A1F",
")  c #6B4B1B",
"_  c #6B4B1E",
"`  c #6C4C1C",
"'  c #6F4E1D",
"]  c #6F4E1F",
"[  c #704E19",
"{  c #734F19",
"}  c #704D1A",
"|  c #73501A",
" . c #775019",
".. c #74501A",
"X. c #75511A",
"o. c #77531B",
"O. c #70501D",
"+. c #72501F",
"@. c #73521E",
"#. c #77531D",
"$. c #75521E",
"%. c #77531E",
"&. c #78531B",
"*. c #78541B",
"=. c #7A551C",
"-. c #7C581E",
";. c #7E581E",
":. c #7F591F",
">. c #534021",
",. c #594321",
"<. c #584421",
"1. c #5D4521",
"2. c #55452D",
"3. c #4B453A",
"4. c #604720",
"5. c #664B22",
"6. c #604924",
"7. c #624A24",
"8. c #674E27",
"9. c #6E4E23",
"0. c #6F5125",
"q. c #6E542A",
"w. c #6E542C",
"e. c #785520",
"r. c #7B5820",
"t. c #7E5820",
"y. c #7F5920",
"u. c #735528",
"i. c #70542C",
"p. c #75582E",
"a. c #79592B",
"s. c #7D5B2A",
"d. c #7C5E31",
"f. c #7D5E31",
"g. c #7E5F31",
"h. c #393F41",
"j. c #3C3F41",
"k. c #3B4142",
"l. c #3D4142",
"z. c #3D4244",
"x. c #424647",
"c. c #43484A",
"v. c #464B4C",
"b. c #474C4E",
"n. c #494E4F",
"m. c #4A4F51",
"M. c #4C4F50",
"N. c #4C5153",
"B. c #4D5254",
"V. c #525757",
"C. c #56595B",
"Z. c #565B5D",
"A. c #5B5E5E",
"S. c #645847",
"D. c #5B5F60",
"F. c #5C6161",
"G. c #5F6363",
"H. c #6D7071",
"J. c #6D7171",
"K. c #6E7272",
"L. c #6F7272",
"P. c #6E7174",
"I. c #6F7375",
"U. c #707374",
"Y. c #727475",
"T. c #717576",
"R. c #737676",
"E. c #777A7B",
"W. c #7A7D7B",
"Q. c #787C7C",
"!. c #797C7C",
"~. c #7B7D7D",
"^. c #7B7E7E",
"/. c #7B7E7F",
"(. c #815B1F",
"). c #805C21",
"_. c #835C20",
"`. c #845C21",
"'. c #835E24",
"]. c #845C24",
"[. c #865F24",
"{. c #876027",
"}. c #8D6324",
"|. c #82602C",
" X c #83602C",
".X c #81602F",
"XX c #86612C",
"oX c #86642E",
"OX c #87642E",
"+X c #86642F",
"@X c #88642D",
"#X c #8B642D",
"$X c #926727",
"%X c #956A2A",
"&X c #7E8283",
"*X c #838484",
"=X c #838685",
"-X c #848888",
";X c #898C8A",
":X c #898B8D",
">X c #898C8D",
",X c #8B8E8E",
"<X c #8E9190",
"1X c #8F9292",
"2X c #929593",
"3X c #949797",
"4X c #999C9B",
"5X c #9C9F9E",
"6X c #9D9F9F",
"7X c #9EA1A0",
"8X c #A5A5A1",
"9X c #A8AAAA",
"0X c #ABADAC",
"qX c #ACADAD",
"wX c #AFB1B1",
"eX c #AFB2B1",
"rX c #B1B4B4",
"tX c #B2B4B4",
"yX c #B5B6B5",
"uX c #B7B9B7",
"iX c #B8BAB9",
"pX c #BBBCBA",
"aX c #BBBCBB",
"sX c #BDBFBE",
"dX c #BEC0BE",
"fX c #C0C2C2",
"gX c #C2C3C2",
"hX c None",
/* pixels */
"hXhXhXhXhXhXhXhXhXhXhXhXhXhXhXhXhXhXhXhXhXhXhXhXhXhXhXhXhXhXhXhX",
"hXhXhXhXhXhXhXhXhXhXhXhXhXhXhXhXhXhXhXhXhXhXhXhXhXhXhXhXhXhXhXhX",
"hXhXhXhXhXhXhXhXhXhXhXhXhXhXhXhXhXhXhXhXhXhXhXhXhXhXhXhXhXhXhXhX",
"hXhXhXhXhXhXhXhXhXhXhXhXhXhXhXhXhXhXhXhXhXhXhXhXhXhXhXhXhXhXhXhX",
"hXhXhXhXhXhXhXhXhXhXhXhXhXhXhXhXhXhXhXhXhXhXhXhXhXhXhXhXhXhXhXhX",
"hXhXhXhXhXhXhXhXhXhXhXhXhXhXhXhXhXhXhXhXhXhXhXhXhXhXhXhXhXhXhXhX",
"hXhXhXhXhXhXhXhXhXhXhXhXhXhXhXhXhXhXhXhXhXhXhXhXhXhXhXhXhXhXhXhX",
"hXhXhXhXhXhXhXhXhXhXhXhXhXhXhXhXhXhXhXhXhXhXhXhXhXhXhXhXhXhXhXhX",
"hXhXhXhXhXhXhXhXhXhXhXhXhXhXhXhXhXhXhXhXhXhXhXhXhXhXhXhXhXhXhXhX",
"hXhXhXhXhXhXhXhXhXhXhXhXhXhXhXhXhXhXr hXhXhXhXhXhXhXhXhXhXhXhXhX",
"hXhX6X7X4X3X<X:X-X&XW.T.P.U.P.U./.I.hXhXhXhXhXhXhXhXhXhXhXhXhXhX",
"hXhX<X9XqXeXrXyXiXaXdXfXfXdXpXuXrXeX0X=XhXhXhXhXhXhXhXhXhXhXhXhX",
"hXhXZ.t u i p h.k.z.2.XX#Xa.3.b.m.m.B.B.hXhXhXhXhXhXhXhXhXhXhXhX",
"hXhXc.r r r r 0 5 {.$X=.=.(.%X9.4 4 0 r t hXhXhXhXhXhXhXhXhXhXhX",
"hXhXr r 0 9 2 1 ].=.Y U B B  .(.~ ; ; ; , hXhXhXhXhXhXhXhXhXhXhX",
"hXhXhXhX9 2 , G ;.| 0.B O.[.C [ y.* % $ hXhXs.hXhXhXhXhXhXhXhXhX",
"hXhXhXhXhXhXhX .| @ O.%.F } / %.=.T H J J ,.6.u.XXhXhXhXhXhXhXhX",
"hXhXhXhXhXhXhXQ *.]._.v b F e.)  .k b U ^ 5.6.8.q.|.+XhXhXhXhXhX",
"hXhXhXhXhXhXhXW  .c F ) 1.O.] Z  .f b B U <.5.<.w.p..X#XhXhXhXhX",
"hXhXhXhXhXhXhXl @.O.-.V P # -._.E O hXo & hXhXhX8XS.d.d.#XhXhXhX",
"hXhXhXhXhXhXhXhXQ ;.*.* T 9.;.| g hXhXhXhXhXhXhXT.A.6 >.d.+XhXhX",
"hXhXhXhXhXhXhXhXhXQ *.$X;.;.{ j hXhXhXhXhXhXhXhXa < hXhX= w.hXhX",
"hXhXhXhXhXhXhXhXhXhXd z A k + . . . hXhXhXhXhXhXhXhXhXhXhXhXhXhX",
"hXhXhXhXhXhXhXhXhXhXhXhXhXhXhXhXhXhXhXhXhXhXhXhXhXhX,XW.hXhXhXhX",
"hXhXhXhXhXhXhXhXhXhXhXhXhXhXhXhXhXhXhXhXhXhX*XR.hX:X2XW.D.hXhXhX",
"hXhXhXhXhXhXhXhXhXhXhXhXhXhXhXhXhXhXhXhXhX;X6XW.D.P.P.C.l.hXhXhX",
"hXhXhXhXhXhXhXhXhXhXhXhXhXhXhXhXhXhXhXhXhXW.E.G.v.hXx.u hXhXhXhX",
"hXhXhXhXhXhXhXhXhXhXhXhXhXhXhXhXhXhXhXhXhXV.M.l.s hXhXhXhXhXhXhX",
"hXhXhXhXhXhXhXhXhXhXhXhXhXhXhXhXhXhXhXhXhXhXhXhXhXhXhXhXhXhXhXhX",
"hXhXhXhXhXhXhXhXhXhXhXhXhXhXhXhXhXhXhXhXhXhXhXhXhXhXhXhXhXhXhXhX",
"hXhXhXhXhXhXhXhXhXhXhXhXhXhXhXhXhXhXhXhXhXhXhXhXhXhXhXhXhXhXhXhX",
"hXhXhXhXhXhXhXhXhXhXhXhXhXhXhXhXhXhXhXhXhXhXhXhXhXhXhXhXhXhXhXhX"
};
